<?xml version="1.0" encoding="UTF-8"?>
<svg id="Layer_1" xmlns="http://www.w3.org/2000/svg" xmlns:xlink="http://www.w3.org/1999/xlink" version="1.1" viewBox="0 0 173.64 89.89">
  <!-- Generator: Adobe Illustrator 29.4.0, SVG Export Plug-In . SVG Version: 2.1.0 Build 152)  -->
  <defs>
    <style>
      .st0, .st1, .st2, .st3, .st4 {
        fill: none;
      }

      .st1 {
        stroke-miterlimit: 4;
        stroke-width: 4px;
      }

      .st1, .st3, .st4 {
        stroke: #000;
      }

      .st5 {
        clip-path: url(#clippath-17);
      }

      .st6 {
        clip-path: url(#clippath-19);
      }

      .st7 {
        clip-path: url(#clippath-11);
      }

      .st8 {
        clip-path: url(#clippath-16);
      }

      .st9 {
        clip-path: url(#clippath-18);
      }

      .st10 {
        clip-path: url(#clippath-10);
      }

      .st11 {
        clip-path: url(#clippath-15);
      }

      .st12 {
        clip-path: url(#clippath-13);
      }

      .st13 {
        clip-path: url(#clippath-14);
      }

      .st14 {
        clip-path: url(#clippath-12);
      }

      .st15 {
        clip-path: url(#clippath-20);
      }

      .st16 {
        clip-path: url(#clippath-21);
      }

      .st17 {
        clip-path: url(#clippath-22);
      }

      .st18 {
        clip-path: url(#clippath-23);
      }

      .st19 {
        clip-path: url(#clippath-24);
      }

      .st20 {
        clip-path: url(#clippath-1);
      }

      .st21 {
        clip-path: url(#clippath-3);
      }

      .st22 {
        clip-path: url(#clippath-4);
      }

      .st23 {
        clip-path: url(#clippath-2);
      }

      .st24 {
        clip-path: url(#clippath-7);
      }

      .st25 {
        clip-path: url(#clippath-6);
      }

      .st26 {
        clip-path: url(#clippath-9);
      }

      .st27 {
        clip-path: url(#clippath-8);
      }

      .st28 {
        clip-path: url(#clippath-5);
      }

      .st29 {
        fill: #fff;
      }

      .st2 {
        stroke: #85888d;
        stroke-width: 2px;
      }

      .st3 {
        stroke-width: 3px;
      }

      .st30 {
        clip-path: url(#clippath);
      }

      .st4 {
        stroke-width: 4px;
      }
    </style>
    <clipPath id="clippath">
      <rect class="st0" x="33.71" y="14.56" width="59.26" height="54.17"/>
    </clipPath>
    <clipPath id="clippath-1">
      <rect class="st0" x="24.3" y="39" width="78.87" height="43.4"/>
    </clipPath>
    <clipPath id="clippath-2">
      <rect class="st0" x="60.84" y="40.64" width="6" height="40.15"/>
    </clipPath>
    <clipPath id="clippath-3">
      <rect class="st0" x="46.27" y="23.34" width="7.82" height="11.23"/>
    </clipPath>
    <clipPath id="clippath-4">
      <rect class="st0" x="59.93" y="23.34" width="7.82" height="11.23"/>
    </clipPath>
    <clipPath id="clippath-5">
      <rect class="st0" x="72.59" y="23.34" width="7.82" height="11.23"/>
    </clipPath>
    <clipPath id="clippath-6">
      <rect class="st0" x="54.57" y="6.06" width="17.54" height="6"/>
    </clipPath>
    <clipPath id="clippath-7">
      <rect class="st0" x="60.84" y="6.68" width="6" height="11.71"/>
    </clipPath>
    <clipPath id="clippath-8">
      <rect class="st0" x="21.33" y="13.28" width="6" height="38.65" transform="translate(-15.93 26.76) rotate(-45)"/>
    </clipPath>
    <clipPath id="clippath-9">
      <rect class="st0" x="-417.32" y="-184" width="1024" height="768"/>
    </clipPath>
    <clipPath id="clippath-10">
      <rect class="st0" x="16.17" y="22.51" width="22.11" height="6"/>
    </clipPath>
    <clipPath id="clippath-11">
      <rect class="st0" x="14.59" y="23.76" width="6" height="31.33"/>
    </clipPath>
    <clipPath id="clippath-12">
      <rect class="st0" x="7.18" y="53.09" width="20.06" height="15.89"/>
    </clipPath>
    <clipPath id="clippath-13">
      <rect class="st0" x="137.77" y="49" width="34.29" height="11.02" transform="translate(50.71 181.44) rotate(-70)"/>
    </clipPath>
    <clipPath id="clippath-14">
      <rect class="st0" x="-314.95" y="-243.92" width="1024" height="768"/>
    </clipPath>
    <clipPath id="clippath-15">
      <rect class="st0" x="154.87" y="35.05" width="10.26" height="11.02" transform="translate(67.16 177.04) rotate(-70)"/>
    </clipPath>
    <clipPath id="clippath-16">
      <rect class="st0" x="-314.95" y="-243.92" width="1024" height="768"/>
    </clipPath>
    <clipPath id="clippath-17">
      <rect class="st0" x="144.86" y="57.76" width="11.27" height="17.76" transform="translate(36.4 185.27) rotate(-70)"/>
    </clipPath>
    <clipPath id="clippath-18">
      <rect class="st0" x="-314.95" y="-243.92" width="1024" height="768"/>
    </clipPath>
    <clipPath id="clippath-19">
      <rect class="st0" x="138.99" y="52.11" width="31.56" height="4.46" transform="translate(50.77 181.19) rotate(-70)"/>
    </clipPath>
    <clipPath id="clippath-20">
      <rect class="st0" x="-314.95" y="-243.92" width="1024" height="768"/>
    </clipPath>
    <clipPath id="clippath-21">
      <rect class="st0" x="153.76" y="28.55" width="17.84" height="5" transform="translate(77.87 173.3) rotate(-70)"/>
    </clipPath>
    <clipPath id="clippath-22">
      <rect class="st0" x="-314.95" y="-243.92" width="1024" height="768"/>
    </clipPath>
    <clipPath id="clippath-23">
      <rect class="st0" x="157.37" y="32.63" width="9.92" height="5" transform="translate(73.8 175.66) rotate(-70)"/>
    </clipPath>
    <clipPath id="clippath-24">
      <rect class="st0" x="-314.95" y="-243.92" width="1024" height="768"/>
    </clipPath>
  </defs>
  <path class="st2" d="M165.68,57.18"/>
  <path class="st2" d="M25.68,121.32"/>
  <rect class="st0" x="-417.32" y="-184" width="1024" height="768"/>
  <g class="st30">
    <g>
      <path class="st29" d="M48.92,17.56h28.84c3.58,0,5.73,0,7.17.6,2.07.75,3.69,2.38,4.45,4.45.6,1.43.6,3.58.6,7.17v23.74c0,3.58,0,5.73-.6,7.17-.75,2.07-2.38,3.69-4.45,4.45-1.43.6-3.58.6-7.17.6h-28.84c-3.58,0-5.73,0-7.17-.6-2.07-.75-3.69-2.38-4.45-4.45-.6-1.43-.6-3.58-.6-7.17v-23.74c0-3.58,0-5.73.6-7.17.75-2.07,2.38-3.69,4.45-4.45,1.43-.6,3.58-.6,7.17-.6Z"/>
      <path class="st4" d="M48.92,17.56h28.84c3.58,0,5.73,0,7.17.6,2.07.75,3.69,2.38,4.45,4.45.6,1.43.6,3.58.6,7.17v23.74c0,3.58,0,5.73-.6,7.17-.75,2.07-2.38,3.69-4.45,4.45-1.43.6-3.58.6-7.17.6h-28.84c-3.58,0-5.73,0-7.17-.6-2.07-.75-3.69-2.38-4.45-4.45-.6-1.43-.6-3.58-.6-7.17v-23.74c0-3.58,0-5.73.6-7.17.75-2.07,2.38-3.69,4.45-4.45,1.43-.6,3.58-.6,7.17-.6Z"/>
    </g>
  </g>
  <g class="st20">
    <g>
      <polygon class="st29" points="35.19 78.57 27.77 51.92 64.13 42.08 99.76 52.02 92.92 79.38 35.19 78.57"/>
      <polygon class="st4" points="35.19 78.57 27.77 51.92 64.13 42.08 99.76 52.02 92.92 79.38 35.19 78.57"/>
    </g>
  </g>
  <g class="st23">
    <line class="st4" x1="63.84" y1="79.8" x2="63.84" y2="41.64"/>
  </g>
  <g class="st21">
    <rect x="47.27" y="24.34" width="5.82" height="9.23"/>
  </g>
  <g class="st22">
    <rect x="60.93" y="24.34" width="5.82" height="9.23"/>
  </g>
  <g class="st28">
    <rect x="73.59" y="24.34" width="5.82" height="9.23"/>
  </g>
  <g class="st25">
    <line class="st4" x1="71.11" y1="9.06" x2="55.57" y2="9.06"/>
  </g>
  <g class="st24">
    <line class="st4" x1="63.84" y1="17.39" x2="63.84" y2="7.68"/>
  </g>
  <g class="st27">
    <g class="st26">
      <line class="st4" x1="37.29" y1="45.56" x2="11.37" y2="19.64"/>
    </g>
  </g>
  <g class="st10">
    <line class="st4" x1="37.29" y1="25.51" x2="17.17" y2="25.51"/>
  </g>
  <g class="st7">
    <line class="st4" x1="17.59" y1="54.09" x2="17.59" y2="24.76"/>
  </g>
  <g class="st14">
    <g>
      <path class="st29" d="M17.2,56.09c1.62,0,3.06.02,3.77.3,1.37.5,2.46,1.58,2.96,2.96.2.54.3,1.11.3,1.69s-.1,1.15-.3,1.69c-.5,1.37-1.58,2.46-2.96,2.96-.71.28-2.15.3-3.77.3s-3.06-.02-3.77-.3c-1.37-.5-2.46-1.58-2.96-2.96-.2-.54-.3-1.11-.3-1.69s.1-1.15.3-1.69c.5-1.37,1.58-2.46,2.96-2.96.71-.28,2.15-.3,3.77-.3Z"/>
      <path class="st4" d="M17.2,56.09c1.62,0,3.06.02,3.77.3,1.37.5,2.46,1.58,2.96,2.96.2.54.3,1.11.3,1.69s-.1,1.15-.3,1.69c-.5,1.37-1.58,2.46-2.96,2.96-.71.28-2.15.3-3.77.3s-3.06-.02-3.77-.3c-1.37-.5-2.46-1.58-2.96-2.96-.2-.54-.3-1.11-.3-1.69s.1-1.15.3-1.69c.5-1.37,1.58-2.46,2.96-2.96.71-.28,2.15-.3,3.77-.3Z"/>
    </g>
  </g>
  <g class="st12">
    <g class="st13">
      <g>
        <rect class="st29" x="140.77" y="52" width="28.29" height="5.02" transform="translate(50.71 181.44) rotate(-70)"/>
        <rect class="st1" x="140.77" y="52" width="28.29" height="5.02" transform="translate(50.71 181.44) rotate(-70)"/>
      </g>
    </g>
  </g>
  <g class="st11">
    <g class="st8">
      <g>
        <path class="st29" d="M162.17,39.76c.64,1.12.18,2.39-1.03,2.83-1.21.45-2.7-.1-3.34-1.22s-.18-2.39,1.03-2.83c1.21-.45,2.7.1,3.34,1.22Z"/>
        <path class="st4" d="M162.17,39.76c.64,1.12.18,2.39-1.03,2.83s-2.7-.1-3.34-1.22-.18-2.39,1.03-2.83,2.7.1,3.34,1.22Z"/>
      </g>
    </g>
  </g>
  <g class="st5">
    <g class="st9">
      <g>
        <polygon class="st29" points="151.03 65.19 152.94 70.34 146.26 67.9 151.03 65.19"/>
        <polygon class="st4" points="151.03 65.19 152.94 70.34 146.26 67.9 151.03 65.19"/>
      </g>
    </g>
  </g>
  <g class="st6">
    <g class="st15">
      <rect class="st29" x="139.99" y="53.12" width="29.56" height="2.46" transform="translate(50.76 181.19) rotate(-70)"/>
    </g>
  </g>
  <g class="st16">
    <g class="st17">
      <line class="st3" x1="159.98" y1="38.49" x2="165.39" y2="23.6"/>
    </g>
  </g>
  <g class="st18">
    <g class="st19">
      <line class="st3" x1="160.98" y1="38.85" x2="163.69" y2="31.41"/>
    </g>
  </g>
  <rect class="st0" x="-417.32" y="-184" width="1024" height="768"/>
</svg>